<mxfile modified="2019-11-04T02:44:39.750Z" host="www.draw.io" agent="Mozilla/5.0 (X11; Linux x86_64) AppleWebKit/537.36 (KHTML, like Gecko) Chrome/77.0.3865.120 Safari/537.36" etag="oT_oYGrsUKn_HisWdUAo" version="12.1.9" type="github" pages="2">
  <diagram id="dJIkZJ6dtBG-nSI26m5C" name="sequence-common">
    <mxGraphModel dx="1035" dy="594" grid="1" gridSize="10" guides="1" tooltips="1" connect="1" arrows="1" fold="1" page="1" pageScale="1" pageWidth="827" pageHeight="1169" math="0" shadow="0">
      <root>
        <mxCell id="0"/>
        <mxCell id="1" parent="0"/>
        <mxCell id="gbN1MqvqnfTus4hQJ345-1" value="BOSS" style="shape=umlLifeline;perimeter=lifelinePerimeter;whiteSpace=wrap;html=1;container=1;collapsible=0;recursiveResize=0;outlineConnect=0;fontSize=14;" parent="1" vertex="1">
          <mxGeometry x="130" y="30" width="100" height="600" as="geometry"/>
        </mxCell>
        <mxCell id="gbN1MqvqnfTus4hQJ345-2" value="" style="html=1;points=[];perimeter=orthogonalPerimeter;fontSize=14;" parent="gbN1MqvqnfTus4hQJ345-1" vertex="1">
          <mxGeometry x="45" y="70" width="10" height="100" as="geometry"/>
        </mxCell>
        <mxCell id="gbN1MqvqnfTus4hQJ345-3" value="BAS" style="shape=umlLifeline;perimeter=lifelinePerimeter;whiteSpace=wrap;html=1;container=1;collapsible=0;recursiveResize=0;outlineConnect=0;fontSize=14;" parent="1" vertex="1">
          <mxGeometry x="300" y="30" width="100" height="600" as="geometry"/>
        </mxCell>
        <mxCell id="gbN1MqvqnfTus4hQJ345-4" value="" style="html=1;points=[];perimeter=orthogonalPerimeter;fontSize=14;" parent="gbN1MqvqnfTus4hQJ345-3" vertex="1">
          <mxGeometry x="45" y="70" width="10" height="520" as="geometry"/>
        </mxCell>
        <mxCell id="gbN1MqvqnfTus4hQJ345-5" value="DB" style="shape=umlLifeline;perimeter=lifelinePerimeter;whiteSpace=wrap;html=1;container=1;collapsible=0;recursiveResize=0;outlineConnect=0;fontSize=14;" parent="1" vertex="1">
          <mxGeometry x="473" y="30" width="100" height="600" as="geometry"/>
        </mxCell>
        <mxCell id="gbN1MqvqnfTus4hQJ345-6" value="" style="html=1;points=[];perimeter=orthogonalPerimeter;fontSize=14;" parent="gbN1MqvqnfTus4hQJ345-5" vertex="1">
          <mxGeometry x="47" y="330" width="10" height="31" as="geometry"/>
        </mxCell>
        <mxCell id="gbN1MqvqnfTus4hQJ345-7" value="PBX-SDK" style="shape=umlLifeline;perimeter=lifelinePerimeter;whiteSpace=wrap;html=1;container=1;collapsible=0;recursiveResize=0;outlineConnect=0;fontSize=14;" parent="1" vertex="1">
          <mxGeometry x="640" y="30" width="100" height="600" as="geometry"/>
        </mxCell>
        <mxCell id="gbN1MqvqnfTus4hQJ345-8" value="" style="html=1;points=[];perimeter=orthogonalPerimeter;fontSize=14;" parent="gbN1MqvqnfTus4hQJ345-7" vertex="1">
          <mxGeometry x="45" y="212" width="10" height="40" as="geometry"/>
        </mxCell>
        <mxCell id="diIwUIzAQdJYFxFr634x-8" value="" style="html=1;points=[];perimeter=orthogonalPerimeter;fontSize=14;" vertex="1" parent="gbN1MqvqnfTus4hQJ345-7">
          <mxGeometry x="46" y="471" width="10" height="40" as="geometry"/>
        </mxCell>
        <mxCell id="gbN1MqvqnfTus4hQJ345-9" value="自动开通请求" style="html=1;verticalAlign=bottom;endArrow=block;fontSize=14;" parent="1" edge="1">
          <mxGeometry width="80" relative="1" as="geometry">
            <mxPoint x="190" y="120" as="sourcePoint"/>
            <mxPoint x="340" y="120" as="targetPoint"/>
          </mxGeometry>
        </mxCell>
        <mxCell id="gbN1MqvqnfTus4hQJ345-10" value="BAS反馈:是否接受成功" style="html=1;verticalAlign=bottom;endArrow=open;dashed=1;endSize=8;fontSize=14;" parent="1" edge="1">
          <mxGeometry relative="1" as="geometry">
            <mxPoint x="345" y="177" as="sourcePoint"/>
            <mxPoint x="190" y="177" as="targetPoint"/>
          </mxGeometry>
        </mxCell>
        <mxCell id="gbN1MqvqnfTus4hQJ345-11" value="" style="html=1;points=[];perimeter=orthogonalPerimeter;fontSize=14;" parent="1" vertex="1">
          <mxGeometry x="350" y="140" width="10" height="30" as="geometry"/>
        </mxCell>
        <mxCell id="gbN1MqvqnfTus4hQJ345-12" value="解析参数,判断参数&lt;br&gt;是否健全" style="edgeStyle=orthogonalEdgeStyle;html=1;align=left;spacingLeft=2;endArrow=block;rounded=0;entryX=1;entryY=0;fontSize=14;" parent="1" target="gbN1MqvqnfTus4hQJ345-11" edge="1">
          <mxGeometry relative="1" as="geometry">
            <mxPoint x="355" y="120" as="sourcePoint"/>
            <Array as="points">
              <mxPoint x="380" y="120"/>
            </Array>
          </mxGeometry>
        </mxCell>
        <mxCell id="gbN1MqvqnfTus4hQJ345-13" value="云PBX反馈:是否处理成功" style="html=1;verticalAlign=bottom;endArrow=open;dashed=1;endSize=8;fontSize=14;" parent="1" edge="1">
          <mxGeometry relative="1" as="geometry">
            <mxPoint x="680" y="268" as="sourcePoint"/>
            <mxPoint x="360" y="268" as="targetPoint"/>
          </mxGeometry>
        </mxCell>
        <mxCell id="gbN1MqvqnfTus4hQJ345-14" value="调用SDK，执行对应动作，向PBX发送一系列请求" style="html=1;verticalAlign=bottom;endArrow=block;fontSize=14;" parent="1" edge="1">
          <mxGeometry width="80" relative="1" as="geometry">
            <mxPoint x="355" y="252" as="sourcePoint"/>
            <mxPoint x="680" y="252" as="targetPoint"/>
          </mxGeometry>
        </mxCell>
        <mxCell id="gbN1MqvqnfTus4hQJ345-15" value="" style="html=1;points=[];perimeter=orthogonalPerimeter;fontSize=14;" parent="1" vertex="1">
          <mxGeometry x="176" y="567" width="10" height="20" as="geometry"/>
        </mxCell>
        <mxCell id="gbN1MqvqnfTus4hQJ345-16" value="BAS转发:云pbx的处理结果" style="html=1;verticalAlign=bottom;endArrow=block;entryX=1;entryY=0;fontSize=14;" parent="1" edge="1">
          <mxGeometry relative="1" as="geometry">
            <mxPoint x="340" y="577" as="sourcePoint"/>
            <mxPoint x="186" y="577" as="targetPoint"/>
          </mxGeometry>
        </mxCell>
        <mxCell id="gbN1MqvqnfTus4hQJ345-17" value="" style="html=1;verticalAlign=bottom;endArrow=open;dashed=1;endSize=8;exitX=1;exitY=0.95;fontSize=14;" parent="1" source="gbN1MqvqnfTus4hQJ345-15" edge="1">
          <mxGeometry relative="1" as="geometry">
            <mxPoint x="340" y="586" as="targetPoint"/>
          </mxGeometry>
        </mxCell>
        <mxCell id="gbN1MqvqnfTus4hQJ345-18" value="" style="html=1;points=[];perimeter=orthogonalPerimeter;fontSize=14;" parent="1" vertex="1">
          <mxGeometry x="350" y="313" width="10" height="140" as="geometry"/>
        </mxCell>
        <mxCell id="gbN1MqvqnfTus4hQJ345-19" value="" style="edgeStyle=orthogonalEdgeStyle;html=1;align=left;spacingLeft=2;endArrow=block;rounded=0;entryX=1;entryY=0;fontSize=14;" parent="1" target="gbN1MqvqnfTus4hQJ345-18" edge="1">
          <mxGeometry relative="1" as="geometry">
            <mxPoint x="355" y="293" as="sourcePoint"/>
            <Array as="points">
              <mxPoint x="380" y="293"/>
            </Array>
          </mxGeometry>
        </mxCell>
        <mxCell id="gbN1MqvqnfTus4hQJ345-20" value="操作二级数据customer,&lt;br&gt;ims,shortnum等" style="html=1;verticalAlign=bottom;endArrow=block;fontSize=14;" parent="1" edge="1">
          <mxGeometry width="80" relative="1" as="geometry">
            <mxPoint x="366" y="373" as="sourcePoint"/>
            <mxPoint x="516" y="373" as="targetPoint"/>
          </mxGeometry>
        </mxCell>
        <mxCell id="gbN1MqvqnfTus4hQJ345-21" value="" style="html=1;verticalAlign=bottom;endArrow=open;dashed=1;endSize=8;fontSize=14;" parent="1" edge="1">
          <mxGeometry relative="1" as="geometry">
            <mxPoint x="515.5" y="383" as="sourcePoint"/>
            <mxPoint x="360.5" y="383" as="targetPoint"/>
          </mxGeometry>
        </mxCell>
        <mxCell id="gbN1MqvqnfTus4hQJ345-22" value="根据云PBX处理结果,&lt;br&gt;将执行成功的数据&lt;br&gt;写入数据库" style="text;html=1;fontSize=14;" parent="1" vertex="1">
          <mxGeometry x="380" y="272" width="130" height="30" as="geometry"/>
        </mxCell>
        <mxCell id="gbN1MqvqnfTus4hQJ345-23" value="" style="html=1;points=[];perimeter=orthogonalPerimeter;fontSize=14;" parent="1" vertex="1">
          <mxGeometry x="520" y="422" width="10" height="30" as="geometry"/>
        </mxCell>
        <mxCell id="gbN1MqvqnfTus4hQJ345-24" value="更新order,order_status,&lt;br&gt;更新统计数据" style="html=1;verticalAlign=bottom;endArrow=block;fontSize=14;" parent="1" edge="1">
          <mxGeometry width="80" relative="1" as="geometry">
            <mxPoint x="366" y="431" as="sourcePoint"/>
            <mxPoint x="516" y="431" as="targetPoint"/>
          </mxGeometry>
        </mxCell>
        <mxCell id="gbN1MqvqnfTus4hQJ345-25" value="" style="html=1;verticalAlign=bottom;endArrow=open;dashed=1;endSize=8;fontSize=14;" parent="1" edge="1">
          <mxGeometry relative="1" as="geometry">
            <mxPoint x="515.5" y="441" as="sourcePoint"/>
            <mxPoint x="360.5" y="441" as="targetPoint"/>
          </mxGeometry>
        </mxCell>
        <mxCell id="gbN1MqvqnfTus4hQJ345-26" value="" style="html=1;points=[];perimeter=orthogonalPerimeter;fontSize=14;" parent="1" vertex="1">
          <mxGeometry x="515" y="182" width="10" height="27" as="geometry"/>
        </mxCell>
        <mxCell id="gbN1MqvqnfTus4hQJ345-27" value="写入基本数据order" style="html=1;verticalAlign=bottom;endArrow=block;fontSize=14;" parent="1" edge="1">
          <mxGeometry width="80" relative="1" as="geometry">
            <mxPoint x="361" y="191" as="sourcePoint"/>
            <mxPoint x="511" y="191" as="targetPoint"/>
          </mxGeometry>
        </mxCell>
        <mxCell id="gbN1MqvqnfTus4hQJ345-28" value="" style="html=1;verticalAlign=bottom;endArrow=open;dashed=1;endSize=8;fontSize=14;" parent="1" edge="1">
          <mxGeometry relative="1" as="geometry">
            <mxPoint x="510.5" y="201" as="sourcePoint"/>
            <mxPoint x="355.5" y="201" as="targetPoint"/>
          </mxGeometry>
        </mxCell>
        <mxCell id="diIwUIzAQdJYFxFr634x-3" value="" style="edgeStyle=orthogonalEdgeStyle;html=1;align=left;spacingLeft=2;endArrow=block;rounded=0;entryX=1;entryY=0;fontSize=14;" edge="1" parent="1">
          <mxGeometry relative="1" as="geometry">
            <mxPoint x="355" y="473" as="sourcePoint"/>
            <Array as="points">
              <mxPoint x="380" y="473"/>
            </Array>
            <mxPoint x="360" y="493" as="targetPoint"/>
          </mxGeometry>
        </mxCell>
        <mxCell id="diIwUIzAQdJYFxFr634x-4" value="写库失败，执行数据回滚&lt;br&gt;" style="text;html=1;fontSize=14;" vertex="1" parent="1">
          <mxGeometry x="380" y="452" width="130" height="30" as="geometry"/>
        </mxCell>
        <mxCell id="diIwUIzAQdJYFxFr634x-5" value="" style="html=1;points=[];perimeter=orthogonalPerimeter;fontSize=14;" vertex="1" parent="1">
          <mxGeometry x="350" y="482" width="10" height="78" as="geometry"/>
        </mxCell>
        <mxCell id="diIwUIzAQdJYFxFr634x-6" value="调用对应接口，进行回滚" style="html=1;verticalAlign=bottom;endArrow=block;fontSize=14;" edge="1" parent="1" target="gbN1MqvqnfTus4hQJ345-7">
          <mxGeometry width="80" relative="1" as="geometry">
            <mxPoint x="365" y="520" as="sourcePoint"/>
            <mxPoint x="515" y="520" as="targetPoint"/>
          </mxGeometry>
        </mxCell>
        <mxCell id="diIwUIzAQdJYFxFr634x-7" value="" style="html=1;verticalAlign=bottom;endArrow=open;dashed=1;endSize=8;fontSize=14;" edge="1" parent="1" source="gbN1MqvqnfTus4hQJ345-7">
          <mxGeometry relative="1" as="geometry">
            <mxPoint x="514.5" y="530" as="sourcePoint"/>
            <mxPoint x="359.5" y="530" as="targetPoint"/>
          </mxGeometry>
        </mxCell>
      </root>
    </mxGraphModel>
  </diagram>
  <diagram id="pM8VXzOhhg8RW59jhIwh" name="interaction-simpify">
    <mxGraphModel dx="1035" dy="594" grid="0" gridSize="10" guides="1" tooltips="1" connect="1" arrows="1" fold="1" page="1" pageScale="1" pageWidth="827" pageHeight="1169" math="0" shadow="0">
      <root>
        <mxCell id="rinHVR5RJzgUqYsJ6-p7-0"/>
        <mxCell id="rinHVR5RJzgUqYsJ6-p7-1" parent="rinHVR5RJzgUqYsJ6-p7-0"/>
        <mxCell id="d0NadCLr2hk_VE_kVVC0-28" value="" style="rounded=1;whiteSpace=wrap;html=1;fontSize=12;fillColor=#dae8fc;strokeColor=#6c8ebf;dashed=1;" parent="rinHVR5RJzgUqYsJ6-p7-1" vertex="1">
          <mxGeometry x="285" y="34" width="139" height="393" as="geometry"/>
        </mxCell>
        <mxCell id="d0NadCLr2hk_VE_kVVC0-0" value="BOSS" style="shape=umlLifeline;perimeter=lifelinePerimeter;whiteSpace=wrap;html=1;container=1;collapsible=0;recursiveResize=0;outlineConnect=0;fontSize=18;" parent="rinHVR5RJzgUqYsJ6-p7-1" vertex="1">
          <mxGeometry x="147" y="53" width="100" height="375" as="geometry"/>
        </mxCell>
        <mxCell id="d0NadCLr2hk_VE_kVVC0-1" value="" style="html=1;points=[];perimeter=orthogonalPerimeter;fontSize=12;" parent="d0NadCLr2hk_VE_kVVC0-0" vertex="1">
          <mxGeometry x="45" y="70" width="10" height="100" as="geometry"/>
        </mxCell>
        <mxCell id="d0NadCLr2hk_VE_kVVC0-2" value="BAS" style="shape=umlLifeline;perimeter=lifelinePerimeter;whiteSpace=wrap;html=1;container=1;collapsible=0;recursiveResize=0;outlineConnect=0;fontSize=18;" parent="rinHVR5RJzgUqYsJ6-p7-1" vertex="1">
          <mxGeometry x="300" y="53" width="100" height="370" as="geometry"/>
        </mxCell>
        <mxCell id="d0NadCLr2hk_VE_kVVC0-3" value="" style="html=1;points=[];perimeter=orthogonalPerimeter;fontSize=14;" parent="d0NadCLr2hk_VE_kVVC0-2" vertex="1">
          <mxGeometry x="45" y="70" width="10" height="289" as="geometry"/>
        </mxCell>
        <mxCell id="d0NadCLr2hk_VE_kVVC0-6" value="PBX的SDK" style="shape=umlLifeline;perimeter=lifelinePerimeter;whiteSpace=wrap;html=1;container=1;collapsible=0;recursiveResize=0;outlineConnect=0;fontSize=18;" parent="rinHVR5RJzgUqYsJ6-p7-1" vertex="1">
          <mxGeometry x="474" y="53" width="100" height="365" as="geometry"/>
        </mxCell>
        <mxCell id="d0NadCLr2hk_VE_kVVC0-7" value="" style="html=1;points=[];perimeter=orthogonalPerimeter;fontSize=12;" parent="d0NadCLr2hk_VE_kVVC0-6" vertex="1">
          <mxGeometry x="45" y="212" width="10" height="40" as="geometry"/>
        </mxCell>
        <mxCell id="d0NadCLr2hk_VE_kVVC0-8" value="请求" style="html=1;verticalAlign=bottom;endArrow=block;fontSize=12;labelBackgroundColor=none;" parent="rinHVR5RJzgUqYsJ6-p7-1" edge="1">
          <mxGeometry width="80" relative="1" as="geometry">
            <mxPoint x="210" y="143" as="sourcePoint"/>
            <mxPoint x="340" y="143" as="targetPoint"/>
          </mxGeometry>
        </mxCell>
        <mxCell id="d0NadCLr2hk_VE_kVVC0-9" value="BAS反馈" style="html=1;verticalAlign=bottom;endArrow=open;dashed=1;endSize=8;fontSize=12;labelBackgroundColor=none;" parent="rinHVR5RJzgUqYsJ6-p7-1" edge="1">
          <mxGeometry relative="1" as="geometry">
            <mxPoint x="345" y="200" as="sourcePoint"/>
            <mxPoint x="206" y="200" as="targetPoint"/>
          </mxGeometry>
        </mxCell>
        <mxCell id="d0NadCLr2hk_VE_kVVC0-10" value="" style="html=1;points=[];perimeter=orthogonalPerimeter;fontSize=12;" parent="rinHVR5RJzgUqYsJ6-p7-1" vertex="1">
          <mxGeometry x="350" y="163" width="10" height="30" as="geometry"/>
        </mxCell>
        <mxCell id="d0NadCLr2hk_VE_kVVC0-11" value="解析参数,判断参数&lt;br style=&quot;font-size: 12px;&quot;&gt;是否健全" style="edgeStyle=orthogonalEdgeStyle;html=1;align=left;spacingLeft=2;endArrow=block;rounded=0;entryX=1;entryY=0;fontSize=12;labelBackgroundColor=none;" parent="rinHVR5RJzgUqYsJ6-p7-1" target="d0NadCLr2hk_VE_kVVC0-10" edge="1">
          <mxGeometry relative="1" as="geometry">
            <mxPoint x="355" y="143" as="sourcePoint"/>
            <Array as="points">
              <mxPoint x="380" y="143"/>
            </Array>
          </mxGeometry>
        </mxCell>
        <mxCell id="d0NadCLr2hk_VE_kVVC0-12" value="SDK反馈处理结果" style="html=1;verticalAlign=bottom;endArrow=open;dashed=1;endSize=8;fontSize=12;" parent="rinHVR5RJzgUqYsJ6-p7-1" edge="1">
          <mxGeometry relative="1" as="geometry">
            <mxPoint x="509" y="295" as="sourcePoint"/>
            <mxPoint x="362" y="295" as="targetPoint"/>
          </mxGeometry>
        </mxCell>
        <mxCell id="d0NadCLr2hk_VE_kVVC0-13" value="调用SDK，向PBX请求" style="html=1;verticalAlign=bottom;endArrow=block;fontSize=12;labelBackgroundColor=none;" parent="rinHVR5RJzgUqYsJ6-p7-1" edge="1">
          <mxGeometry width="80" relative="1" as="geometry">
            <mxPoint x="357" y="277" as="sourcePoint"/>
            <mxPoint x="513" y="277" as="targetPoint"/>
          </mxGeometry>
        </mxCell>
        <mxCell id="d0NadCLr2hk_VE_kVVC0-14" value="" style="html=1;points=[];perimeter=orthogonalPerimeter;fontSize=12;" parent="rinHVR5RJzgUqYsJ6-p7-1" vertex="1">
          <mxGeometry x="193" y="301" width="10" height="20" as="geometry"/>
        </mxCell>
        <mxCell id="d0NadCLr2hk_VE_kVVC0-15" value="BAS转发" style="html=1;verticalAlign=bottom;endArrow=block;fontSize=12;labelBackgroundColor=none;" parent="rinHVR5RJzgUqYsJ6-p7-1" edge="1">
          <mxGeometry relative="1" as="geometry">
            <mxPoint x="340" y="311" as="sourcePoint"/>
            <mxPoint x="209" y="311" as="targetPoint"/>
          </mxGeometry>
        </mxCell>
        <mxCell id="d0NadCLr2hk_VE_kVVC0-16" value="" style="html=1;verticalAlign=bottom;endArrow=open;dashed=1;endSize=8;fontSize=12;" parent="rinHVR5RJzgUqYsJ6-p7-1" edge="1">
          <mxGeometry relative="1" as="geometry">
            <mxPoint x="340" y="320" as="targetPoint"/>
            <mxPoint x="210" y="320" as="sourcePoint"/>
          </mxGeometry>
        </mxCell>
        <mxCell id="d0NadCLr2hk_VE_kVVC0-17" value="" style="html=1;points=[];perimeter=orthogonalPerimeter;fontSize=12;" parent="rinHVR5RJzgUqYsJ6-p7-1" vertex="1">
          <mxGeometry x="350" y="352" width="10" height="47" as="geometry"/>
        </mxCell>
        <mxCell id="d0NadCLr2hk_VE_kVVC0-18" value="" style="edgeStyle=orthogonalEdgeStyle;html=1;align=left;spacingLeft=2;endArrow=block;rounded=0;entryX=1;entryY=0;fontSize=12;" parent="rinHVR5RJzgUqYsJ6-p7-1" target="d0NadCLr2hk_VE_kVVC0-17" edge="1">
          <mxGeometry relative="1" as="geometry">
            <mxPoint x="355" y="332" as="sourcePoint"/>
            <Array as="points">
              <mxPoint x="380" y="332"/>
            </Array>
          </mxGeometry>
        </mxCell>
        <mxCell id="d0NadCLr2hk_VE_kVVC0-21" value="根据SDK返回的结果,&lt;br style=&quot;font-size: 12px;&quot;&gt;更新数据" style="text;html=1;fontSize=12;" parent="rinHVR5RJzgUqYsJ6-p7-1" vertex="1">
          <mxGeometry x="380" y="322" width="130" height="30" as="geometry"/>
        </mxCell>
      </root>
    </mxGraphModel>
  </diagram>
</mxfile>
